<svg aria-hidden="true" style="width:0;height:0;position:absolute;overflow:hidden" xmlns="http://www.w3.org/2000/svg"><defs><symbol id="icon-mobile" viewBox="0 0 40 40"><path d="M28.75 0h-17.5A3.761 3.761 0 0 0 7.5 3.75v32.5A3.761 3.761 0 0 0 11.25 40h17.5a3.761 3.761 0 0 0 3.75-3.75V3.75A3.761 3.761 0 0 0 28.75 0zM15 1.875h10v1.25H15v-1.25zM20 37.5a2.5 2.5 0 1 1 0-5 2.5 2.5 0 0 1 0 5zM30 30H10V5h20v25z"/></symbol><symbol id="icon-quotes" viewBox="0 0 40 40"><path d="M8.789 17.5a8.75 8.75 0 1 1-8.75 8.75L0 25C0 15.335 7.835 7.5 17.5 7.5v5c-3.339 0-6.478 1.3-8.839 3.661-.454.455-.869.938-1.243 1.446.447-.07.905-.107 1.371-.107zm22.5 0a8.75 8.75 0 1 1-8.75 8.75L22.5 25c0-9.665 7.835-17.5 17.5-17.5v5c-3.339 0-6.478 1.3-8.839 3.661-.455.455-.869.938-1.243 1.446.447-.07.905-.107 1.371-.107z"/></symbol><symbol id="icon-star" viewBox="0 0 40 40"><path d="m40 15.51-13.82-2.008L20 .979l-6.18 12.523L0 15.51l10 9.748-2.361 13.764L20 32.524l12.361 6.498L30 25.258l10-9.748z"/></symbol><symbol id="icon-instagram" viewBox="0 0 40 40"><path d="M20 3.602c5.344 0 5.977.023 8.078.117 1.953.086 3.008.414 3.711.688a6.18 6.18 0 0 1 2.297 1.492c.703.703 1.133 1.367 1.5 2.297.273.703.602 1.766.688 3.711.094 2.109.117 2.742.117 8.078s-.023 5.977-.117 8.078c-.086 1.953-.414 3.008-.688 3.711a6.18 6.18 0 0 1-1.492 2.297c-.703.703-1.367 1.133-2.297 1.5-.703.273-1.766.602-3.711.688-2.109.094-2.742.117-8.078.117s-5.977-.023-8.078-.117c-1.953-.086-3.008-.414-3.711-.688a6.18 6.18 0 0 1-2.297-1.492c-.703-.703-1.133-1.367-1.5-2.297-.273-.703-.602-1.766-.688-3.711-.094-2.109-.117-2.742-.117-8.078s.023-5.977.117-8.078c.086-1.953.414-3.008.688-3.711a6.18 6.18 0 0 1 1.492-2.297c.703-.703 1.367-1.133 2.297-1.5.703-.273 1.766-.602 3.711-.687 2.102-.094 2.734-.117 8.078-.117zM20 0c-5.43 0-6.109.023-8.242.117-2.125.094-3.586.438-4.852.93-1.32.516-2.438 1.195-3.547 2.313-1.117 1.109-1.797 2.227-2.313 3.539C.554 8.172.21 9.626.116 11.751c-.094 2.141-.117 2.82-.117 8.25s.023 6.109.117 8.242c.094 2.125.438 3.586.93 4.852.516 1.32 1.195 2.438 2.313 3.547a9.785 9.785 0 0 0 3.539 2.305c1.273.492 2.727.836 4.852.93 2.133.094 2.813.117 8.242.117s6.109-.023 8.242-.117c2.125-.094 3.586-.438 4.852-.93 1.313-.508 2.43-1.195 3.539-2.305s1.797-2.227 2.305-3.539c.492-1.273.836-2.727.93-4.852.094-2.133.117-2.813.117-8.242s-.023-6.109-.117-8.242c-.094-2.125-.438-3.586-.93-4.852a9.374 9.374 0 0 0-2.289-3.555 9.785 9.785 0 0 0-3.539-2.305C31.829.563 30.375.219 28.25.125 26.109.023 25.43 0 20 0z"/><path d="M20 9.727C14.328 9.727 9.727 14.329 9.727 20S14.329 30.273 20 30.273 30.273 25.671 30.273 20c0-5.672-4.602-10.273-10.273-10.273zm0 16.937a6.665 6.665 0 1 1 .001-13.33A6.665 6.665 0 0 1 20 26.665zM33.078 9.32a2.398 2.398 0 1 1-4.796 0 2.398 2.398 0 0 1 4.796 0z"/></symbol></defs></svg>