<svg aria-hidden="true" style="position: absolute; width: 0; height: 0; overflow: hidden;" version="1.1" xmlns="http://www.w3.org/2000/svg" xmlns:xlink="http://www.w3.org/1999/xlink">
<defs>
<symbol id="icon-mobile" viewBox="0 0 40 40">
<path d="M28.75 0h-17.5c-2.063 0-3.75 1.688-3.75 3.75v32.5c0 2.063 1.688 3.75 3.75 3.75h17.5c2.063 0 3.75-1.688 3.75-3.75v-32.5c0-2.063-1.688-3.75-3.75-3.75zM15 1.875h10v1.25h-10v-1.25zM20 37.5c-1.381 0-2.5-1.119-2.5-2.5s1.119-2.5 2.5-2.5 2.5 1.119 2.5 2.5-1.119 2.5-2.5 2.5zM30 30h-20v-25h20v25z"></path>
</symbol>
<symbol id="icon-quotes" viewBox="0 0 40 40">
<path d="M8.789 17.5c4.832 0 8.75 3.918 8.75 8.75s-3.918 8.75-8.75 8.75-8.75-3.918-8.75-8.75l-0.039-1.25c0-9.665 7.835-17.5 17.5-17.5v5c-3.339 0-6.478 1.3-8.839 3.661-0.454 0.455-0.869 0.938-1.243 1.446 0.447-0.070 0.905-0.107 1.371-0.107zM31.289 17.5c4.832 0 8.75 3.918 8.75 8.75s-3.918 8.75-8.75 8.75-8.75-3.918-8.75-8.75l-0.039-1.25c0-9.665 7.835-17.5 17.5-17.5v5c-3.339 0-6.478 1.3-8.839 3.661-0.455 0.455-0.869 0.938-1.243 1.446 0.447-0.070 0.905-0.107 1.371-0.107z"></path>
</symbol>
<symbol id="icon-star" viewBox="0 0 40 40">
<path d="M40 15.51l-13.82-2.008-6.18-12.523-6.18 12.523-13.82 2.008 10 9.748-2.361 13.764 12.361-6.498 12.361 6.498-2.361-13.764 10-9.748z"></path>
</symbol>
<symbol id="icon-instagram" viewBox="0 0 40 40">
<path d="M20 3.602c5.344 0 5.977 0.023 8.078 0.117 1.953 0.086 3.008 0.414 3.711 0.688 0.93 0.359 1.602 0.797 2.297 1.492 0.703 0.703 1.133 1.367 1.5 2.297 0.273 0.703 0.602 1.766 0.688 3.711 0.094 2.109 0.117 2.742 0.117 8.078s-0.023 5.977-0.117 8.078c-0.086 1.953-0.414 3.008-0.688 3.711-0.359 0.93-0.797 1.602-1.492 2.297-0.703 0.703-1.367 1.133-2.297 1.5-0.703 0.273-1.766 0.602-3.711 0.688-2.109 0.094-2.742 0.117-8.078 0.117s-5.977-0.023-8.078-0.117c-1.953-0.086-3.008-0.414-3.711-0.688-0.93-0.359-1.602-0.797-2.297-1.492-0.703-0.703-1.133-1.367-1.5-2.297-0.273-0.703-0.602-1.766-0.688-3.711-0.094-2.109-0.117-2.742-0.117-8.078s0.023-5.977 0.117-8.078c0.086-1.953 0.414-3.008 0.688-3.711 0.359-0.93 0.797-1.602 1.492-2.297 0.703-0.703 1.367-1.133 2.297-1.5 0.703-0.273 1.766-0.602 3.711-0.687 2.102-0.094 2.734-0.117 8.078-0.117zM20 0c-5.43 0-6.109 0.023-8.242 0.117-2.125 0.094-3.586 0.438-4.852 0.93-1.32 0.516-2.438 1.195-3.547 2.313-1.117 1.109-1.797 2.227-2.313 3.539-0.492 1.273-0.836 2.727-0.93 4.852-0.094 2.141-0.117 2.82-0.117 8.25s0.023 6.109 0.117 8.242c0.094 2.125 0.438 3.586 0.93 4.852 0.516 1.32 1.195 2.438 2.313 3.547 1.109 1.109 2.227 1.797 3.539 2.305 1.273 0.492 2.727 0.836 4.852 0.93 2.133 0.094 2.813 0.117 8.242 0.117s6.109-0.023 8.242-0.117c2.125-0.094 3.586-0.438 4.852-0.93 1.313-0.508 2.43-1.195 3.539-2.305s1.797-2.227 2.305-3.539c0.492-1.273 0.836-2.727 0.93-4.852 0.094-2.133 0.117-2.813 0.117-8.242s-0.023-6.109-0.117-8.242c-0.094-2.125-0.438-3.586-0.93-4.852-0.492-1.328-1.172-2.445-2.289-3.555-1.109-1.109-2.227-1.797-3.539-2.305-1.273-0.492-2.727-0.836-4.852-0.93-2.141-0.102-2.82-0.125-8.25-0.125v0z"></path>
<path d="M20 9.727c-5.672 0-10.273 4.602-10.273 10.273s4.602 10.273 10.273 10.273 10.273-4.602 10.273-10.273c0-5.672-4.602-10.273-10.273-10.273zM20 26.664c-3.68 0-6.664-2.984-6.664-6.664s2.984-6.664 6.664-6.664c3.68 0 6.664 2.984 6.664 6.664s-2.984 6.664-6.664 6.664z"></path>
<path d="M33.078 9.32c0 1.325-1.074 2.398-2.398 2.398s-2.398-1.074-2.398-2.398c0-1.325 1.074-2.398 2.398-2.398s2.398 1.074 2.398 2.398z"></path>
</symbol>
</defs>
</svg>
